<?xml version="1.0" standalone="no"?>
<!DOCTYPE svg PUBLIC "-//W3C//DTD SVG 20010904//EN"
 "http://www.w3.org/TR/2001/REC-SVG-20010904/DTD/svg10.dtd">
<svg version="1.0" xmlns="http://www.w3.org/2000/svg"
 width="500.000000pt" height="500.000000pt" viewBox="0 0 500.000000 500.000000"
 preserveAspectRatio="xMidYMid meet">

<g transform="translate(0.000000,500.000000) scale(0.100000,-0.100000)"
fill="#000000" stroke="none">
<path d="M2365 3963 c-45 -5 -189 -46 -196 -56 -3 -4 -46 -16 -95 -26 -84 -18
-294 -107 -309 -131 -3 -5 -13 -6 -22 -3 -11 4 -14 3 -9 -5 5 -8 -5 -19 -26
-30 -18 -9 -62 -45 -99 -79 -36 -35 -71 -63 -77 -63 -22 0 -23 -39 -3 -59 26
-26 34 -27 26 -1 -5 15 0 21 20 26 15 4 30 17 35 30 6 15 15 22 24 18 8 -3 17
2 20 14 5 14 13 18 27 15 16 -5 35 9 81 58 36 38 62 59 65 52 6 -16 33 -17 33
-2 0 28 61 96 99 111 23 9 41 13 41 9 0 -4 -16 -23 -36 -42 -52 -50 -59 -66
-29 -66 14 0 22 4 19 9 -3 4 9 22 26 38 35 32 82 50 87 33 3 -7 16 -8 41 -1
20 5 55 13 77 16 25 5 35 10 28 15 -7 5 -13 22 -13 38 l0 30 48 -6 c70 -10 76
-13 63 -29 -10 -12 -6 -13 21 -10 18 3 44 6 58 7 14 1 37 10 51 20 25 16 32
16 135 1 60 -9 116 -16 124 -15 8 1 41 4 73 7 42 4 67 2 91 -10 19 -9 50 -16
69 -16 65 0 127 -36 95 -56 -17 -11 83 -56 121 -55 39 2 121 -35 121 -54 0 -8
5 -17 12 -21 7 -5 8 -3 3 6 -6 9 -2 10 16 5 17 -5 11 3 -21 29 -25 20 -54 36
-65 36 -27 0 -121 45 -131 62 -18 27 -65 48 -166 72 -147 35 -259 56 -294 56
-17 0 -44 4 -60 9 -34 11 -156 19 -199 14z"/>
<path d="M2758 3853 c7 -3 16 -2 19 1 4 3 -2 6 -13 5 -11 0 -14 -3 -6 -6z"/>
<path d="M3430 3541 c19 -16 38 -27 43 -24 10 6 9 31 -2 37 -5 4 -7 -4 -4 -16
4 -22 3 -21 -21 5 -14 15 -31 27 -38 27 -7 0 3 -13 22 -29z"/>
<path d="M1462 3501 c-142 -154 -200 -232 -268 -358 -20 -37 -40 -70 -43 -73
-12 -10 -41 -81 -41 -100 0 -10 -8 -23 -17 -28 -14 -9 -15 -14 -3 -41 8 -20
18 -30 26 -27 19 7 28 -12 14 -29 -6 -7 -7 -16 -2 -19 16 -10 52 88 62 172 5
46 13 90 18 98 8 14 11 14 25 -1 16 -15 17 -15 17 5 0 30 54 128 96 175 19 22
53 66 74 97 21 31 40 55 42 52 3 -2 12 21 20 51 8 30 13 55 11 55 -3 0 -17
-13 -31 -29z m-310 -623 c-7 -7 -12 -8 -12 -2 0 14 12 26 19 19 2 -3 -1 -11
-7 -17z"/>
<path d="M3548 3458 c5 -5 16 -8 23 -6 8 3 3 7 -10 11 -17 4 -21 3 -13 -5z"/>
<path d="M2539 3182 c-65 -34 -132 -113 -188 -221 -77 -152 -110 -285 -118
-488 l-6 -142 -46 -19 c-85 -37 -125 -44 -281 -49 -172 -6 -286 6 -595 60
l-180 32 -8 55 c-4 30 -12 70 -17 88 -5 20 -5 44 1 60 15 44 26 208 15 231
-12 28 -34 27 -46 -4 -15 -40 -23 -384 -9 -401 6 -8 9 -14 6 -14 -3 0 -99 16
-214 36 -490 86 -843 41 -843 -108 0 -63 62 -78 141 -33 98 56 168 85 241 99
135 28 355 19 600 -24 66 -12 67 -12 73 -49 3 -20 2 -57 -4 -81 -8 -37 -7 -46
5 -53 12 -7 12 -12 4 -22 -9 -11 -5 -29 16 -77 16 -35 32 -65 36 -68 4 -4 16
-31 26 -60 10 -30 36 -82 57 -115 22 -33 45 -71 51 -85 6 -14 28 -45 48 -68
20 -24 36 -50 36 -57 0 -16 192 -215 207 -215 6 0 35 -23 65 -51 29 -27 109
-84 178 -124 129 -77 173 -90 221 -65 15 9 24 6 43 -13 70 -70 339 -109 581
-84 44 5 100 10 124 12 24 2 47 8 50 13 3 5 48 21 99 36 108 30 231 87 267
124 14 14 28 22 31 19 11 -11 123 52 140 78 9 14 20 22 26 19 10 -6 196 161
207 186 3 8 17 26 29 40 40 43 133 191 172 275 59 128 122 304 117 326 -3 12
1 39 9 61 15 44 19 108 6 108 -15 0 -49 -44 -55 -70 -31 -136 -76 -270 -113
-337 -18 -35 -29 -63 -24 -63 11 0 -50 -99 -86 -140 -12 -14 -25 -35 -28 -47
-4 -12 -22 -31 -41 -42 -19 -11 -35 -26 -35 -33 0 -6 -48 -62 -107 -122 -106
-108 -208 -188 -268 -208 -16 -6 -41 -21 -55 -33 -44 -39 -78 -57 -98 -51 -26
9 -70 -9 -98 -39 -21 -23 -31 -25 -104 -25 -58 0 -93 -5 -123 -19 -52 -24
-123 -38 -113 -23 6 10 -40 26 -60 21 -5 -2 -24 1 -43 5 -24 6 -36 4 -41 -5
-7 -10 -18 -9 -56 6 -49 19 -71 23 -159 29 -106 9 -126 12 -133 23 -10 16 -57
33 -90 33 -24 1 -79 30 -56 30 5 0 -16 11 -46 23 -30 13 -54 29 -52 35 1 7 -4
12 -12 12 -8 0 -21 8 -28 18 -7 10 -40 33 -73 51 -33 17 -90 60 -127 94 -37
34 -73 63 -80 65 -19 5 -38 23 -38 36 0 7 -16 27 -35 46 -20 19 -33 40 -31 47
3 6 -13 30 -35 52 -21 23 -39 45 -39 50 0 5 -11 16 -23 24 -14 9 -34 41 -47
77 -13 35 -33 74 -45 89 -12 14 -26 37 -30 51 -7 23 -7 24 11 10 16 -13 16
-11 -3 22 -19 32 -33 90 -38 153 -1 11 -4 27 -7 35 -14 35 -17 80 -6 80 7 0
91 -16 187 -34 282 -56 399 -69 541 -63 127 6 264 33 321 63 17 8 33 13 36 11
2 -3 11 -63 19 -134 19 -160 38 -194 99 -179 22 6 25 12 25 50 0 135 49 321
110 416 37 57 81 88 98 67 17 -20 31 -96 32 -161 l0 -59 -62 -56 c-77 -70
-131 -152 -153 -235 -33 -121 -5 -201 70 -199 76 2 155 76 210 196 33 72 65
199 65 259 l0 49 66 30 c214 97 421 101 1224 23 347 -34 676 -38 785 -11 77
20 149 57 165 87 19 35 12 78 -15 96 -34 22 -74 13 -155 -36 -187 -112 -368
-119 -1205 -49 -66 5 -203 10 -305 10 -211 1 -334 -15 -470 -62 -46 -16 -85
-29 -86 -29 -1 0 -5 19 -9 43 -10 65 -52 145 -85 162 -94 48 -189 -30 -250
-205 -33 -92 -43 -98 -35 -20 6 54 14 74 45 115 107 141 219 341 259 463 42
125 37 235 -12 266 -43 27 -63 27 -118 -2z m88 -171 c-6 -92 -49 -218 -118
-351 -57 -109 -120 -210 -132 -210 -15 0 23 207 60 325 49 156 154 338 185
319 7 -4 9 -35 5 -83z m-41 -925 c-19 -79 -44 -132 -81 -166 -22 -21 -28 -22
-35 -10 -22 35 17 143 83 230 35 46 43 51 45 34 2 -12 -4 -51 -12 -88z"/>
<path d="M1092 2840 c0 -14 2 -19 5 -12 2 6 2 18 0 25 -3 6 -5 1 -5 -13z"/>
<path d="M1191 2094 c0 -11 3 -14 6 -6 3 7 2 16 -1 19 -3 4 -6 -2 -5 -13z"/>
</g>
</svg>
